<?xml version="1.0" standalone="no"?><!DOCTYPE svg PUBLIC "-//W3C//DTD SVG 1.1//EN" "http://www.w3.org/Graphics/SVG/1.1/DTD/svg11.dtd"><svg t="1687839941919" class="icon" viewBox="0 0 1024 1024" version="1.1" xmlns="http://www.w3.org/2000/svg" p-id="1759" xmlns:xlink="http://www.w3.org/1999/xlink" width="200" height="200"><path d="M568.448 668.885333c-47.125333 0-85.333333-38.208-85.333333-85.333333s38.272-82.709333 85.333333-85.333333C704 490.666667 796.202667 469.248 825.834667 333.610667c19.968-91.392 101.589333-78.421333 147.968-70.058667 46.378667 8.448 28.373333 54.229333 19.968 100.608C956.970667 566.357333 853.333333 661.333333 568.448 668.885333zM159.338667 582.464c-6.698667 17.514667-14.442667 30.805333-23.552 44.8a219.242667 219.242667 0 0 1-31.168 37.461333C81.386667 687.210667 51.093333 702.378667 21.333333 704c27.328-12.330667 46.272-34.346667 57.749334-58.56 5.802667-12.16 10.048-24.938667 12.970666-37.930667 2.837333-12.650667 4.885333-27.008 4.608-37.952a32.810667 32.810667 0 1 1 63.530667 10.730667l-0.853333 2.176z" fill="#8BC34A" p-id="1760"></path><path d="M128 640a64 64 0 0 0 64 64h469.333333c35.328 0 64-25.130667 69.333334-64H128z" fill="#C0CA33" p-id="1761"></path><path d="M896 320m-42.666667 0a42.666667 42.666667 0 1 0 85.333334 0 42.666667 42.666667 0 1 0-85.333334 0Z" fill="#558B2F" p-id="1762"></path><path d="M512 640l14.912-4.949333c93.888-39.68 172.629333-101.952 226.538667-178.688C711.253333 315.797333 580.970667 213.333333 426.666667 213.333333c-188.501333 0-341.333333 152.832-341.333334 341.333334v21.333333l128 64h298.666667z" fill="#795548" p-id="1763"></path><path d="M426.666667 213.333333c-157.354667 0-289.514667 106.666667-328.981334 251.498667L192 512l128 21.333333h128l106.666667-42.666666 85.333333-64 66.794667-66.794667C645.162667 271.338667 542.741333 213.333333 426.666667 213.333333z" fill="#8D6E63" p-id="1764"></path><path d="M693.824 342.677333l-52.629333 52.629334-104.256-121.6 15.978666-35.946667a335.488 335.488 0 0 0-40.682666-13.525333l-17.642667 39.68-95.189333 76.138666-111.850667-18.645333-50.538667-50.538667a344.533333 344.533333 0 0 0-34.026666 26.325334l48.341333 48.341333-68.906667 137.834667-78.464-39.253334a335.36 335.36 0 0 0-11.733333 41.856l90.218667 45.098667c1.024 0.512 2.112 0.426667 3.157333 0.768 1.002667 0.341333 1.834667 1.045333 2.88 1.216l128 21.333333c1.173333 0.170667 2.346667 0.277333 3.52 0.277334h128a21.333333 21.333333 0 0 0 7.936-1.514667l106.666667-42.666667c1.749333-0.704 3.370667-1.621333 4.885333-2.752l85.333333-64c0.426667-0.32 0.618667-0.768 1.002667-1.109333 0.405333-0.362667 0.917333-0.490667 1.301333-0.874667l63.530667-63.530666a356.394667 356.394667 0 0 0-24.832-35.541334zM321.770667 512l-97.770667-16.298667 65.365333-130.752 98.666667 16.448L420.672 512h-98.901333z m222.357333-40.085333l-81.344 32.533333-33.408-133.696 79.872-63.893333 99.754667 116.394666-64.874667 48.661334z" fill="#5D4037" p-id="1765"></path><path d="M604.181333 549.568l-23.125333-52.010667 53.696-40.277333 50.837333 76.202667a493.653333 493.653333 0 0 0 30.592-31.04l-48.704-73.066667 51.136-51.136a349.162667 349.162667 0 0 0-24.768-35.562667l-67.84 67.84-81.856 61.376-100.266666 40.106667h-122.112l-123.072-20.501333-94.698667-47.36c-4.672 13.653333-8.789333 27.498667-11.733333 41.834666l74.901333 37.461334-20.778667 83.093333 41.834667 20.906667 20.224-91.072 90.218667 15.04V640h42.666666v-85.333333h87.573334l9.472 85.333333h42.944l-10.325334-92.885333 72.490667-28.992 39.637333 89.173333a558.293333 558.293333 0 0 0 36.778667-22.336l-15.722667-35.392z" fill="#4E342E" p-id="1766"></path><path d="M909.781333 306.218667m-21.333333 0a21.333333 21.333333 0 1 0 42.666667 0 21.333333 21.333333 0 1 0-42.666667 0Z" p-id="1767"></path></svg>